<svg xmlns="http://www.w3.org/2000/svg" version="1.1" xmlns:xlink="http://www.w3.org/1999/xlink" xmlns:svgjs="http://svgjs.dev/svgjs" width="270.933" height="270.933"><svg viewBox="0 0 270.933 270.933" xmlns="http://www.w3.org/2000/svg">
  <rect style="opacity: 1; fill: rgb(18, 17, 44); stroke-width: 1.32292; stroke-linecap: round; stroke-linejoin: bevel; paint-order: fill markers; fill-opacity: 1; --darkreader-inline-fill: var(--darkreader-text-12112c, #d5d1cc);" width="270.933" height="270.96" rx="52.917" ry="52.917" data-darkreader-inline-fill=""></rect>
  <path style="color: rgb(0, 0, 0); fill: rgb(247, 116, 64); stroke-width: 1.08865; stroke-linecap: round; stroke-linejoin: bevel; paint-order: fill markers; --darkreader-inline-color: var(--darkreader-text-000000, #e8e6e3); --darkreader-inline-fill: var(--darkreader-text-f77440, #f77a48);" d="M135.466 77.407c-62.587 0-113.2 52.427-113.207 116.145h30.888c.008-47.513 36.93-85.256 82.32-85.256 45.39 0 82.311 37.743 82.319 85.256h30.889c-.008-63.718-50.621-116.145-113.209-116.145Z" data-darkreader-inline-color="" data-darkreader-inline-fill=""></path>
  <path style="color: rgb(0, 0, 0); fill: rgb(250, 250, 250); stroke-linecap: round; stroke-linejoin: bevel; paint-order: fill markers; --darkreader-inline-color: var(--darkreader-text-000000, #e8e6e3); --darkreader-inline-fill: var(--darkreader-text-fafafa, #e5e3df);" d="M135.466 51.328v6.613c44.825 0 84.415 22.893 108.312 57.913l5.343-3.832c-25.1-36.671-66.628-60.694-113.654-60.694h-.001zM167.155 30.006l-1.257 6.487c32.488 6.584 61.33 23.514 83.173 47.304l4.726-4.566c-22.764-24.745-52.805-42.37-86.642-49.225z" data-darkreader-inline-color="" data-darkreader-inline-fill=""></path>
  <circle style="opacity: 1; fill: rgb(250, 250, 250); fill-opacity: 1; stroke: none; stroke-width: 0.864969; stroke-linecap: round; stroke-linejoin: bevel; stroke-dasharray: none; stroke-opacity: 1; paint-order: fill markers; --darkreader-inline-fill: var(--darkreader-text-fafafa, #e5e3df); --darkreader-inline-stroke: none;" cx="137.495" cy="193.552" r="39.11" data-darkreader-inline-fill="" data-darkreader-inline-stroke=""></circle>
</svg><style>@media (prefers-color-scheme: light) { :root { filter: none; } }
@media (prefers-color-scheme: dark) { :root { filter: none; } }
</style></svg>