<svg viewBox="0 0 270.933 270.933" xmlns="http://www.w3.org/2000/svg">
  <rect style="opacity:1;fill:#12112c;stroke-width:1.32292;stroke-linecap:round;stroke-linejoin:bevel;paint-order:fill markers stroke;fill-opacity:1" width="270.933" height="270.96" rx="52.917" ry="52.917"/>
  <path style="color:#000;fill:#f77440;stroke-width:1.08865;stroke-linecap:round;stroke-linejoin:bevel;-inkscape-stroke:none;paint-order:fill markers stroke" d="M135.466 77.407c-62.587 0-113.2 52.427-113.207 116.145h30.888c.008-47.513 36.93-85.256 82.32-85.256 45.39 0 82.311 37.743 82.319 85.256h30.889c-.008-63.718-50.621-116.145-113.209-116.145Z"/>
  <path style="color:#000;fill:#fafafa;stroke-linecap:round;stroke-linejoin:bevel;-inkscape-stroke:none;paint-order:fill markers stroke" d="M135.466 51.328v6.613c44.825 0 84.415 22.893 108.312 57.913l5.343-3.832c-25.1-36.671-66.628-60.694-113.654-60.694h-.001zM167.155 30.006l-1.257 6.487c32.488 6.584 61.33 23.514 83.173 47.304l4.726-4.566c-22.764-24.745-52.805-42.37-86.642-49.225z"/>
  <circle style="opacity:1;fill:#fafafa;fill-opacity:1;stroke:none;stroke-width:.864969;stroke-linecap:round;stroke-linejoin:bevel;stroke-dasharray:none;stroke-opacity:1;paint-order:fill markers stroke" cx="137.495" cy="193.552" r="39.11"/>
</svg>
